<svg width="64" height="14" viewBox="0 0 398 90" xmlns="http://www.w3.org/2000/svg"><path d="M33.125.375c3.833 0 7.083 1.354 9.75 4.063 2.708 2.708 4.063 5.979 4.063 9.812V90h-9.25V13.437c0-1.291-.438-2.374-1.313-3.25-.875-.874-1.958-1.312-3.25-1.312s-2.396.438-3.313 1.313c-.875.874-1.312 1.958-1.312 3.25V90h-9.25V13.437c0-1.291-.438-2.374-1.313-3.25-.875-.874-1.958-1.312-3.25-1.312-1.291 0-2.395.438-3.312 1.313-.875.874-1.313 1.958-1.313 3.25V90H.813V14.25c0-3.833 1.355-7.104 4.063-9.813C7.583 1.73 10.855.375 14.688.375c3.416 0 6.479 1.208 9.187 3.625 2.708-2.417 5.792-3.625 9.25-3.625ZM92.963 90V.375h9.25V90h-9.25ZM180.55.375c3.833 0 7.083 1.354 9.75 4.063 2.708 2.708 4.063 5.979 4.063 9.812V90h-9.25V13.437c0-1.291-.438-2.374-1.313-3.25-.875-.874-1.958-1.312-3.25-1.312s-2.396.438-3.312 1.313c-.875.874-1.313 1.958-1.313 3.25V90h-9.25V13.437c0-1.291-.437-2.374-1.312-3.25-.875-.874-1.959-1.312-3.25-1.312-1.292 0-2.396.438-3.313 1.313-.875.874-1.312 1.958-1.312 3.25V90h-9.25V14.25c0-3.833 1.354-7.104 4.062-9.813 2.708-2.708 5.979-4.062 9.813-4.062 3.416 0 6.479 1.208 9.187 3.625 2.708-2.417 5.792-3.625 9.25-3.625ZM240.388 90V.375h9.25V90h-9.25ZM314.1 41V.375h9.25V90h-9.25V49.437h-9.187V90h-9.25V.375h9.25V41h9.187Zm59.4-36.563c2.708-2.708 5.979-4.062 9.812-4.062 3.834 0 7.084 1.354 9.75 4.063 2.709 2.708 4.063 5.979 4.063 9.812v61.938c0 3.833-1.354 7.104-4.063 9.812-2.666 2.667-5.916 4-9.75 4-3.833 0-7.104-1.333-9.812-4-2.708-2.708-4.062-5.98-4.062-9.813V14.25c0-3.833 1.354-7.104 4.062-9.813Zm14.375 72.5v-63.5c0-1.291-.437-2.374-1.313-3.25-.874-.874-1.958-1.312-3.25-1.312-1.291 0-2.395.438-3.312 1.313-.875.874-1.312 1.958-1.312 3.25v63.5c0 1.291.437 2.395 1.312 3.312.917.875 2.021 1.313 3.312 1.313 1.292 0 2.376-.438 3.25-1.313.876-.917 1.313-2.02 1.313-3.313Z" fill="#fff"/></svg>