<svg aria-hidden="true" style="width:0;height:0;position:absolute;overflow:hidden" xmlns="http://www.w3.org/2000/svg"><defs><symbol id="icon-phone" viewBox="0 0 19 32"><path d="M15.6 0a3.6 3.6 0 0 1 3.6 3.6v24.8a3.6 3.6 0 0 1-3.6 3.6h-12A3.6 3.6 0 0 1 0 28.4V3.6A3.6 3.6 0 0 1 3.6 0h12zm0 2.4h-12a1.2 1.2 0 0 0-1.2 1.2v24.8c0 .662.538 1.2 1.2 1.2h12a1.2 1.2 0 0 0 1.2-1.2V3.6a1.2 1.2 0 0 0-1.2-1.2zm-4.002 22.4h.002a1.2 1.2 0 0 1 .002 2.4l-4 .006H7.6a1.2 1.2 0 0 1-.002-2.4l4-.006z"/></symbol><symbol id="icon-face" viewBox="0 0 32 32"><path d="M13.912 11.099v2.203h-1.613v2.693h1.613V24h3.315v-8.005h2.224s.21-1.291.31-2.704h-2.522v-1.84c0-.277.362-.646.72-.646h1.805V8h-2.456c-3.478 0-3.397 2.696-3.397 3.099z"/><path d="M6.4 3.2a3.2 3.2 0 0 0-3.2 3.2v19.2a3.2 3.2 0 0 0 3.2 3.2h19.2a3.2 3.2 0 0 0 3.2-3.2V6.4a3.2 3.2 0 0 0-3.2-3.2H6.4zm0-3.2h19.2A6.4 6.4 0 0 1 32 6.4v19.2a6.4 6.4 0 0 1-6.4 6.4H6.4A6.4 6.4 0 0 1 0 25.6V6.4A6.4 6.4 0 0 1 6.4 0z"/></symbol><symbol id="icon-insta" viewBox="0 0 32 32"><path d="M9.404.096C11.11.017 11.654 0 16 0s4.89.019 6.595.096 2.868.349 3.887.743a7.88 7.88 0 0 1 2.833 1.847 7.803 7.803 0 0 1 1.844 2.832c.396 1.018.666 2.182.745 3.884.079 1.709.096 2.253.096 6.598 0 4.346-.019 4.89-.096 6.596-.077 1.702-.349 2.865-.745 3.884a7.889 7.889 0 0 1-1.843 2.834l-.001.001a7.832 7.832 0 0 1-2.833 1.844c-1.018.396-2.182.666-3.884.745C20.89 31.983 20.346 32 16 32s-4.89-.019-6.596-.096c-1.702-.077-2.865-.349-3.884-.745a7.889 7.889 0 0 1-2.834-1.843l-.001-.001a7.857 7.857 0 0 1-1.828-2.78l-.018-.054c-.394-1.018-.665-2.182-.743-3.884C.017 20.888 0 20.344 0 15.999c0-4.346.019-4.89.096-6.595s.349-2.868.743-3.887a7.879 7.879 0 0 1 1.846-2.832l.001-.001A7.872 7.872 0 0 1 5.464.856l.054-.018C6.536.444 7.701.173 9.403.095zm13.061 2.88c-1.687-.077-2.193-.093-6.465-.093s-4.778.016-6.465.093c-1.561.071-2.407.332-2.972.551a4.972 4.972 0 0 0-1.84 1.196 4.964 4.964 0 0 0-1.184 1.806l-.011.034c-.22.564-.48 1.411-.551 2.972-.077 1.687-.093 2.193-.093 6.465s.016 4.778.093 6.465c.071 1.561.332 2.407.551 2.972a4.962 4.962 0 0 0 1.196 1.84c.516.531 1.146.94 1.84 1.196.564.22 1.411.48 2.972.551 1.687.077 2.192.093 6.465.093s4.778-.016 6.465-.093c1.561-.071 2.407-.332 2.972-.551a4.972 4.972 0 0 0 1.84-1.196 4.962 4.962 0 0 0 1.196-1.84c.22-.564.48-1.411.551-2.972.077-1.687.093-2.193.093-6.465s-.016-4.778-.093-6.465c-.071-1.561-.332-2.407-.551-2.972a4.972 4.972 0 0 0-1.196-1.84 4.964 4.964 0 0 0-1.806-1.184l-.034-.011c-.564-.22-1.411-.48-2.972-.551zm-8.509 17.956a5.338 5.338 0 1 0 3.878-9.946l-.037-.012a5.338 5.338 0 0 0-3.876 9.944l.035.013zm-3.771-10.747a8.224 8.224 0 1 1 11.63 11.63 8.224 8.224 0 1 1-11.63-11.63zm15.863-1.184a1.944 1.944 0 1 0-2.669-2.827l.001-.001A1.944 1.944 0 1 0 26.049 9l-.001.001z"/></symbol><symbol id="icon-telega" viewBox="0 0 34 32"><path d="M31.245 1.679a3.724 3.724 0 0 0-1.203.291l.024-.009h-.003c-.36.143-2.072.862-4.674 1.954l-9.325 3.928-13.268 5.592.079-.03s-.455.148-.926.472a2.545 2.545 0 0 0-.741.717 2.08 2.08 0 0 0-.349 1.413l-.001-.009c.113.911.704 1.459 1.128 1.76.429.307.839.448.839.448h.01l6.169 2.078c.276.888 1.88 6.157 2.264 7.372.227.724.45 1.179.726 1.524.135.177.29.325.478.445.098.057.202.101.312.135l-.064-.017c.019.005.034.02.049.025.051.013.084.019.148.029.977.296 1.762-.31 1.762-.31l.044-.035 3.641-3.316 6.104 4.682.14.061c1.272.557 2.56.248 3.24-.301.687-.552.953-1.258.953-1.258l.044-.113 4.716-24.163c.135-.596.168-1.155.022-1.696a2.29 2.29 0 0 0-.987-1.324 2.335 2.335 0 0 0-1.353-.34h.006zm-.126 2.589c-.005.081.01.071-.025.224v.013l-4.672 23.912c-.022.034-.056.108-.148.184-.099.077-.177.126-.588-.035l-7.464-5.725-4.51 4.109.947-6.05L26.856 9.532c.504-.467.337-.566.337-.566.034-.573-.76-.168-.76-.168l-15.384 9.531-.005-.025-7.389-2.493a.284.284 0 0 0 .039-.018l-.002.001.04-.019.039-.013 13.273-5.592c3.35-1.411 6.725-2.831 9.32-3.928 1.539-.648 3.082-1.293 4.623-1.933.104-.04.056-.04.13-.04z"/></symbol><symbol id="icon-mapa" viewBox="0 0 20 32"><path d="M10 .018c-5.524 0-10 4.458-10 9.98 0 9.548 10 22 10 22s10-12.454 10-22c0-5.52-4.476-9.98-10-9.98zm0 15.5a5.4 5.4 0 0 1 0-10.8 5.4 5.4 0 0 1 0 10.8z"/></symbol><symbol id="icon-modal-ok" viewBox="0 0 32 32"><path fill="#c79002" style="fill:var(--color1,#c79002)" d="M3.272 10.587c.362-.362.862-.586 1.414-.586s1.052.224 1.414.586l9.9 9.897 9.9-9.9a2 2 0 0 1 2.827 2.829l.001-.001-11.313 11.315c-.362.362-.862.586-1.414.586s-1.052-.224-1.414-.586L3.272 13.414c-.361-.362-.585-.861-.585-1.413s.224-1.052.585-1.413z"/></symbol><symbol id="icon-modal-close" viewBox="0 0 32 32"><path d="m20.572 2.571-18 18M2.572 2.571l18 18" stroke="#000" stroke-width="1.5" stroke-linecap="round" stroke-linejoin="round"/></symbol><symbol id="icon-slide-left" viewBox="0 0 55 32"><path d="M53.481 14.222H7.122L17.789 3.555l-2.517-2.514L.316 15.999l14.958 14.958 2.516-2.514L7.123 17.776h46.359V14.22z"/></symbol><symbol id="icon-slide-right" viewBox="0 0 53 32"><path d="m38.208 1.042-2.514 2.514 10.667 10.667H0v3.556h46.361L35.694 28.446l2.514 2.514 14.958-14.958L38.208 1.044z"/></symbol><path d="M2.454 7.94a1.5 1.5 0 0 1 2.121 0L12 15.363l7.425-7.425a1.5 1.5 0 0 1 2.121 2.121l-8.485 8.486a1.5 1.5 0 0 1-2.121 0L2.454 10.06a1.5 1.5 0 0 1 0-2.12Z" fill="#C79002" id="icon-arrow-down"/></defs></svg>