<svg width="64" height="14" viewBox="0 0 398 90" fill="#000" xmlns="http://www.w3.org/2000/svg">
<path d="M33.125 0.375C36.9583 0.375 40.2083 1.72917 42.875 4.4375C45.5833 7.14583 46.9375 10.4167 46.9375 14.25V90H37.6875V13.4375C37.6875 12.1458 37.25 11.0625 36.375 10.1875C35.5 9.3125 34.4167 8.875 33.125 8.875C31.8333 8.875 30.7292 9.3125 29.8125 10.1875C28.9375 11.0625 28.5 12.1458 28.5 13.4375V90H19.25V13.4375C19.25 12.1458 18.8125 11.0625 17.9375 10.1875C17.0625 9.3125 15.9792 8.875 14.6875 8.875C13.3958 8.875 12.2917 9.3125 11.375 10.1875C10.5 11.0625 10.0625 12.1458 10.0625 13.4375V90H0.8125V14.25C0.8125 10.4167 2.16667 7.14583 4.875 4.4375C7.58333 1.72917 10.8542 0.375 14.6875 0.375C18.1042 0.375 21.1667 1.58333 23.875 4C26.5833 1.58333 29.6667 0.375 33.125 0.375ZM92.9625 90V0.375H102.213V90H92.9625ZM180.55 0.375C184.383 0.375 187.633 1.72917 190.3 4.4375C193.008 7.14583 194.363 10.4167 194.363 14.25V90H185.113V13.4375C185.113 12.1458 184.675 11.0625 183.8 10.1875C182.925 9.3125 181.842 8.875 180.55 8.875C179.258 8.875 178.154 9.3125 177.238 10.1875C176.363 11.0625 175.925 12.1458 175.925 13.4375V90H166.675V13.4375C166.675 12.1458 166.238 11.0625 165.363 10.1875C164.488 9.3125 163.404 8.875 162.113 8.875C160.821 8.875 159.717 9.3125 158.8 10.1875C157.925 11.0625 157.488 12.1458 157.488 13.4375V90H148.238V14.25C148.238 10.4167 149.592 7.14583 152.3 4.4375C155.008 1.72917 158.279 0.375 162.113 0.375C165.529 0.375 168.592 1.58333 171.3 4C174.008 1.58333 177.092 0.375 180.55 0.375ZM240.388 90V0.375H249.638V90H240.388ZM314.1 41V0.375H323.35V90H314.1V49.4375H304.913V90H295.663V0.375H304.913V41H314.1ZM373.5 4.4375C376.208 1.72917 379.479 0.375 383.312 0.375C387.146 0.375 390.396 1.72917 393.062 4.4375C395.771 7.14583 397.125 10.4167 397.125 14.25V76.1875C397.125 80.0208 395.771 83.2917 393.062 86C390.396 88.6667 387.146 90 383.312 90C379.479 90 376.208 88.6667 373.5 86C370.792 83.2917 369.438 80.0208 369.438 76.1875V14.25C369.438 10.4167 370.792 7.14583 373.5 4.4375ZM387.875 76.9375V13.4375C387.875 12.1458 387.438 11.0625 386.562 10.1875C385.688 9.3125 384.604 8.875 383.312 8.875C382.021 8.875 380.917 9.3125 380 10.1875C379.125 11.0625 378.688 12.1458 378.688 13.4375V76.9375C378.688 78.2292 379.125 79.3333 380 80.25C380.917 81.125 382.021 81.5625 383.312 81.5625C384.604 81.5625 385.688 81.125 386.562 80.25C387.438 79.3333 387.875 78.2292 387.875 76.9375Z" fill="white"/>
</svg>
