<svg aria-hidden="true" style="position: absolute; width: 0; height: 0; overflow: hidden;" version="1.1" xmlns="http://www.w3.org/2000/svg" xmlns:xlink="http://www.w3.org/1999/xlink">
<defs>
<symbol id="icon-phone" viewBox="0 0 19 32">
<path d="M15.6 0c1.988 0 3.6 1.612 3.6 3.6v0 24.8c0 1.988-1.612 3.6-3.6 3.6v0h-12c-1.988 0-3.6-1.612-3.6-3.6v0-24.8c0-1.988 1.612-3.6 3.6-3.6v0h12zM15.6 2.4h-12c-0.663 0-1.2 0.537-1.2 1.2v0 24.8c0 0.662 0.538 1.2 1.2 1.2h12c0.663 0 1.2-0.537 1.2-1.2v0-24.8c0-0.663-0.537-1.2-1.2-1.2v0zM11.598 24.8c0 0 0.001 0 0.002 0 0.663 0 1.2 0.537 1.2 1.2s-0.536 1.199-1.198 1.2l-4 0.006c-0 0-0.001 0-0.002 0-0.663 0-1.2-0.537-1.2-1.2s0.536-1.199 1.198-1.2l4-0.006z"></path>
</symbol>
<symbol id="icon-face" viewBox="0 0 32 32">
<path d="M13.912 11.099v2.203h-1.613v2.693h1.613v8.005h3.315v-8.005h2.224s0.21-1.291 0.31-2.704h-2.522v-1.84c0-0.277 0.362-0.646 0.72-0.646h1.805v-2.805h-2.456c-3.478 0-3.397 2.696-3.397 3.099z"></path>
<path d="M6.4 3.2c-1.767 0-3.2 1.433-3.2 3.2v0 19.2c0 1.767 1.433 3.2 3.2 3.2v0h19.2c1.767 0 3.2-1.433 3.2-3.2v0-19.2c0-1.767-1.433-3.2-3.2-3.2v0h-19.2zM6.4 0h19.2c3.535 0 6.4 2.865 6.4 6.4v0 19.2c0 3.535-2.865 6.4-6.4 6.4v0h-19.2c-3.535 0-6.4-2.865-6.4-6.4v0-19.2c0-3.535 2.865-6.4 6.4-6.4v0z"></path>
</symbol>
<symbol id="icon-insta" viewBox="0 0 32 32">
<path  d="M9.404 0.096c1.706-0.079 2.25-0.096 6.596-0.096s4.89 0.019 6.595 0.096c1.705 0.077 2.868 0.349 3.887 0.743 1.066 0.403 2.033 1.033 2.833 1.847 0.815 0.799 1.443 1.764 1.844 2.832 0.396 1.018 0.666 2.182 0.745 3.884 0.079 1.709 0.096 2.253 0.096 6.598 0 4.346-0.019 4.89-0.096 6.596-0.077 1.702-0.349 2.865-0.745 3.884-0.424 1.109-1.051 2.055-1.843 2.834l-0.001 0.001c-0.8 0.815-1.767 1.443-2.833 1.844-1.018 0.396-2.182 0.666-3.884 0.745-1.708 0.079-2.252 0.096-6.598 0.096s-4.89-0.019-6.596-0.096c-1.702-0.077-2.865-0.349-3.884-0.745-1.109-0.424-2.055-1.051-2.834-1.843l-0.001-0.001c-0.794-0.779-1.421-1.725-1.828-2.78l-0.018-0.054c-0.394-1.018-0.665-2.182-0.743-3.884-0.079-1.709-0.096-2.253-0.096-6.598 0-4.346 0.019-4.89 0.096-6.595s0.349-2.868 0.743-3.887c0.425-1.109 1.053-2.054 1.846-2.832l0.001-0.001c0.779-0.793 1.724-1.421 2.778-1.828l0.054-0.018c1.018-0.394 2.183-0.665 3.885-0.743zM22.465 2.976c-1.687-0.077-2.193-0.093-6.465-0.093s-4.778 0.016-6.465 0.093c-1.561 0.071-2.407 0.332-2.972 0.551-0.746 0.291-1.28 0.636-1.84 1.196-0.518 0.504-0.925 1.119-1.184 1.806l-0.011 0.034c-0.22 0.564-0.48 1.411-0.551 2.972-0.077 1.687-0.093 2.193-0.093 6.465s0.016 4.778 0.093 6.465c0.071 1.561 0.332 2.407 0.551 2.972 0.256 0.694 0.665 1.324 1.196 1.84 0.516 0.531 1.146 0.94 1.84 1.196 0.564 0.22 1.411 0.48 2.972 0.551 1.687 0.077 2.192 0.093 6.465 0.093s4.778-0.016 6.465-0.093c1.561-0.071 2.407-0.332 2.972-0.551 0.746-0.291 1.28-0.636 1.84-1.196 0.531-0.516 0.94-1.146 1.196-1.84 0.22-0.564 0.48-1.411 0.551-2.972 0.077-1.687 0.093-2.193 0.093-6.465s-0.016-4.778-0.093-6.465c-0.071-1.561-0.332-2.407-0.551-2.972-0.291-0.746-0.636-1.28-1.196-1.84-0.504-0.518-1.119-0.925-1.806-1.184l-0.034-0.011c-0.564-0.22-1.411-0.48-2.972-0.551zM13.956 20.932c0.604 0.257 1.306 0.407 2.044 0.407 2.948 0 5.338-2.39 5.338-5.338 0-2.304-1.459-4.266-3.504-5.015l-0.037-0.012c-0.535-0.197-1.153-0.312-1.797-0.312-2.948 0-5.338 2.39-5.338 5.338 0 2.211 1.344 4.108 3.259 4.918l0.035 0.013zM10.185 10.185c1.488-1.488 3.544-2.409 5.815-2.409 4.542 0 8.224 3.682 8.224 8.224 0 2.271-0.921 4.327-2.409 5.815v0c-1.488 1.488-3.544 2.409-5.815 2.409-4.542 0-8.224-3.682-8.224-8.224 0-2.271 0.921-4.327 2.409-5.815v0zM26.048 9.001c0.376-0.355 0.61-0.857 0.61-1.414 0-1.073-0.87-1.944-1.944-1.944-0.517 0-0.987 0.202-1.335 0.531l0.001-0.001c-0.376 0.355-0.61 0.857-0.61 1.414 0 1.073 0.87 1.944 1.944 1.944 0.517 0 0.987-0.202 1.335-0.531l-0.001 0.001z"></path>
</symbol>
<symbol id="icon-telega" viewBox="0 0 34 32">
<path  d="M31.245 1.679c-0.432 0.032-0.833 0.132-1.203 0.291l0.024-0.009h-0.003c-0.36 0.143-2.072 0.862-4.674 1.954l-9.325 3.928c-6.691 2.819-13.268 5.592-13.268 5.592l0.079-0.030s-0.455 0.148-0.926 0.472c-0.295 0.187-0.546 0.431-0.741 0.717-0.227 0.33-0.362 0.739-0.362 1.179 0 0.079 0.004 0.157 0.013 0.234l-0.001-0.009c0.113 0.911 0.704 1.459 1.128 1.76 0.429 0.307 0.839 0.448 0.839 0.448h0.010l6.169 2.078c0.276 0.888 1.88 6.157 2.264 7.372 0.227 0.724 0.45 1.179 0.726 1.524 0.135 0.177 0.29 0.325 0.478 0.445 0.098 0.057 0.202 0.101 0.312 0.135l-0.064-0.017c0.019 0.005 0.034 0.020 0.049 0.025 0.051 0.013 0.084 0.019 0.148 0.029 0.977 0.296 1.762-0.31 1.762-0.31l0.044-0.035 3.641-3.316 6.104 4.682 0.14 0.061c1.272 0.557 2.56 0.248 3.24-0.301 0.687-0.552 0.953-1.258 0.953-1.258l0.044-0.113 4.716-24.163c0.135-0.596 0.168-1.155 0.022-1.696-0.153-0.549-0.505-1.021-0.987-1.324-0.35-0.216-0.773-0.343-1.227-0.343-0.042 0-0.084 0.001-0.126 0.003l0.006-0zM31.119 4.268c-0.005 0.081 0.010 0.071-0.025 0.224v0.013l-4.672 23.912c-0.022 0.034-0.056 0.108-0.148 0.184-0.099 0.077-0.177 0.126-0.588-0.035l-7.464-5.725-4.51 4.109 0.947-6.050 12.197-11.368c0.504-0.467 0.337-0.566 0.337-0.566 0.034-0.573-0.76-0.168-0.76-0.168l-15.384 9.531-0.005-0.025-7.389-2.493c0.015-0.006 0.027-0.011 0.039-0.018l-0.002 0.001 0.040-0.019 0.039-0.013 13.273-5.592c3.35-1.411 6.725-2.831 9.32-3.928 1.539-0.648 3.082-1.293 4.623-1.933 0.104-0.040 0.056-0.040 0.13-0.040z"></path>
</symbol>
<symbol id="icon-mapa" viewBox="0 0 20 32">
<path d="M10 0.018c-5.524 0-10 4.458-10 9.98 0 9.548 10 22 10 22s10-12.454 10-22c0-5.52-4.476-9.98-10-9.98zM10 15.518c-2.982 0-5.4-2.418-5.4-5.4s2.418-5.4 5.4-5.4v0c2.982 0 5.4 2.418 5.4 5.4s-2.418 5.4-5.4 5.4v0z"></path>
</symbol>
<symbol id="icon-modal-ok" viewBox="0 0 32 32">
<path fill="#c79002" style="fill: var(--color1, #c79002)" d="M3.272 10.587c0.362-0.362 0.862-0.586 1.414-0.586s1.052 0.224 1.414 0.586l9.9 9.897 9.9-9.9c0.359-0.347 0.849-0.561 1.389-0.561 1.105 0 2 0.895 2 2 0 0.54-0.214 1.030-0.562 1.39l0.001-0.001-11.313 11.315c-0.362 0.362-0.862 0.586-1.414 0.586s-1.052-0.224-1.414-0.586l-11.315-11.313c-0.361-0.362-0.585-0.861-0.585-1.413s0.224-1.052 0.585-1.413l-0 0z"></path>
</symbol>
<symbol id="icon-modal-close" viewBox="0 0 32 32">
<path d="M20.5715 2.57129L2.57153 20.5713" stroke="black" stroke-width="1.5" stroke-linecap="round" stroke-linejoin="round"/>
<path d="M2.57153 2.57129L20.5715 20.5713" stroke="black" stroke-width="1.5" stroke-linecap="round" stroke-linejoin="round"/>
</symbol>
<symbol id="icon-slide-left" viewBox="0 0 55 32">
<path d="M53.481 14.222h-46.359l10.667-10.667-2.517-2.514-14.956 14.958 14.958 14.958 2.516-2.514-10.667-10.667h46.359v-3.556z"></path>
</symbol>
<symbol id="icon-slide-right" viewBox="0 0 53 32">
<path d="M38.208 1.042l-2.514 2.514 10.667 10.667h-46.361v3.556h46.361l-10.667 10.667 2.514 2.514 14.958-14.958-14.958-14.958z"></path>
</symbol>

<g id="icon-arrow-down" width="24" height="24" viewBox="0 0 24 24" fill="none">
<path d="M2.45407 7.93918C2.73536 7.65797 3.11683 7.5 3.51457 7.5C3.91232 7.5 4.29378 7.65797 4.57507 7.93918L12.0001 15.3642L19.4251 7.93918C19.708 7.66594 20.0869 7.51475 20.4802 7.51817C20.8735 7.52159 21.2497 7.67934 21.5278 7.95745C21.8059 8.23556 21.9637 8.61178 21.9671 9.00508C21.9705 9.39837 21.8193 9.77728 21.5461 10.0602L13.0606 18.5457C12.7793 18.8269 12.3978 18.9849 12.0001 18.9849C11.6023 18.9849 11.2209 18.8269 10.9396 18.5457L2.45407 10.0602C2.17287 9.77889 2.01489 9.39743 2.01489 8.99968C2.01489 8.60193 2.17287 8.22047 2.45407 7.93918Z" fill="#C79002"/>
</g>
</defs>
</svg>
